{
  "accessors": [
    {
      "bufferView": 2,
      "componentType": 5126,
      "count": 6325,
      "max": [
        1.1956734657287598,
        0.935749888420105,
        0.9179624915122986
      ],
      "min": [
        -1.1956734657287598,
        -1.935941219329834,
        -0.9935952425003052
      ],
      "type": "VEC3"
    },
    {
      "bufferView": 2,
      "byteOffset": 75900,
      "componentType": 5126,
      "count": 6325,
      "max": [
        0.9999994039535522,
        1.0,
        0.9997529983520508
      ],
      "min": [
        -0.9999994039535522,
        -0.9999823570251465,
        -1.0
      ],
      "type": "VEC3"
    },
    {
      "bufferView": 1,
      "componentType": 5126,
      "count": 6325,
      "max": [
        0.7500001192092896,
        1.0000001192092896
      ],
      "min": [
        0.24999980628490448,
        0.1874999850988388
      ],
      "type": "VEC2"
    },
    {
      "bufferView": 0,
      "componentType": 5125,
      "count": 28368,
      "type": "SCALAR"
    },
    {
      "bufferView": 2,
      "byteOffset": 151800,
      "componentType": 5126,
      "count": 2589,
      "max": [
        1.2077134847640991,
        0.8076615929603577,
        0.9070625305175781
      ],
      "min": [
        -1.2077134847640991,
        -1.7420680522918701,
        -0.248632550239563
      ],
      "type": "VEC3"
    },
    {
      "bufferView": 2,
      "byteOffset": 182868,
      "componentType": 5126,
      "count": 2589,
      "max": [
        0.9420262575149536,
        0.978858470916748,
        0.999990701675415
      ],
      "min": [
        -0.9420337080955505,
        -0.9347837567329407,
        -0.996877133846283
      ],
      "type": "VEC3"
    },
    {
      "bufferView": 1,
      "byteOffset": 50600,
      "componentType": 5126,
      "count": 2589,
      "max": [
        0.5624999403953552,
        0.8184390068054199
      ],
      "min": [
        0.24999746680259705,
        0.1874999850988388
      ],
      "type": "VEC2"
    },
    {
      "bufferView": 0,
      "byteOffset": 113472,
      "componentType": 5125,
      "count": 10296,
      "type": "SCALAR"
    },
    {
      "bufferView": 2,
      "byteOffset": 213936,
      "componentType": 5126,
      "count": 8412,
      "max": [
        1.4393541812896729,
        0.8230423331260681,
        0.99724280834198
      ],
      "min": [
        -1.4393541812896729,
        -2.2626490592956543,
        -0.5848003625869751
      ],
      "type": "VEC3"
    },
    {
      "bufferView": 2,
      "byteOffset": 314880,
      "componentType": 5126,
      "count": 8412,
      "max": [
        0.9999563694000244,
        0.999161958694458,
        0.9997529983520508
      ],
      "min": [
        -0.9999563694000244,
        -1.0,
        -0.9962034821510315
      ],
      "type": "VEC3"
    },
    {
      "bufferView": 1,
      "byteOffset": 71312,
      "componentType": 5126,
      "count": 8412,
      "max": [
        1.0000003576278687,
        1.0000001192092896
      ],
      "min": [
        1.0927519156211929e-07,
        0.1874999701976776
      ],
      "type": "VEC2"
    },
    {
      "bufferView": 0,
      "byteOffset": 154656,
      "componentType": 5125,
      "count": 32640,
      "type": "SCALAR"
    },
    {
      "bufferView": 2,
      "byteOffset": 415824,
      "componentType": 5126,
      "count": 1834,
      "max": [
        0.6920400857925415,
        0.022404320538043976,
        0.9871227741241455
      ],
      "min": [
        -0.6920400857925415,
        -0.7030590772628784,
        0.05695546045899391
      ],
      "type": "VEC3"
    },
    {
      "bufferView": 2,
      "byteOffset": 437832,
      "componentType": 5126,
      "count": 1834,
      "max": [
        0.9987593293190002,
        0.9996830224990845,
        0.9999991655349731
      ],
      "min": [
        -0.9987593293190002,
        -0.9998642206192017,
        -0.453854501247406
      ],
      "type": "VEC3"
    },
    {
      "bufferView": 1,
      "byteOffset": 138608,
      "componentType": 5126,
      "count": 1834,
      "max": [
        0.37053182721138,
        0.49488043785095215
      ],
      "min": [
        0.24991433322429657,
        0.2597847282886505
      ],
      "type": "VEC2"
    },
    {
      "bufferView": 0,
      "byteOffset": 285216,
      "componentType": 5125,
      "count": 7644,
      "type": "SCALAR"
    },
    {
      "bufferView": 2,
      "byteOffset": 459840,
      "componentType": 5126,
      "count": 18377,
      "max": [
        0.8727537989616394,
        0.6795435547828674,
        0.9359121322631836
      ],
      "min": [
        -0.8727537989616394,
        -0.8680673241615295,
        -0.5995386242866516
      ],
      "type": "VEC3"
    },
    {
      "bufferView": 2,
      "byteOffset": 680364,
      "componentType": 5126,
      "count": 18377,
      "max": [
        0.9999845027923584,
        0.9999762773513794,
        0.9999557733535767
      ],
      "min": [
        -0.9999845027923584,
        -0.9999948740005493,
        -0.999364972114563
      ],
      "type": "VEC3"
    },
    {
      "bufferView": 1,
      "byteOffset": 153280,
      "componentType": 5126,
      "count": 18377,
      "max": [
        1.000000238418579,
        1.0557724237442017
      ],
      "min": [
        0.0,
        0.010000006295740604
      ],
      "type": "VEC2"
    },
    {
      "bufferView": 0,
      "byteOffset": 315792,
      "componentType": 5125,
      "count": 84924,
      "type": "SCALAR"
    },
    {
      "bufferView": 2,
      "byteOffset": 900888,
      "componentType": 5126,
      "count": 4274,
      "max": [
        0.11557108908891678,
        -1.5606485605239868,
        -0.5632461905479431
      ],
      "min": [
        -0.11557108908891678,
        -1.791946291923523,
        -0.7955700755119324
      ],
      "type": "VEC3"
    },
    {
      "bufferView": 2,
      "byteOffset": 952176,
      "componentType": 5126,
      "count": 4274,
      "max": [
        1.0,
        0.9995945692062378,
        0.9997866153717041
      ],
      "min": [
        -1.0,
        -0.9995954036712646,
        -0.9997866153717041
      ],
      "type": "VEC3"
    },
    {
      "bufferView": 1,
      "byteOffset": 300296,
      "componentType": 5126,
      "count": 4274,
      "max": [
        1.0000003576278687,
        0.9583334922790527
      ],
      "min": [
        0.0,
        0.0
      ],
      "type": "VEC2"
    },
    {
      "bufferView": 0,
      "byteOffset": 655488,
      "componentType": 5125,
      "count": 22656,
      "type": "SCALAR"
    },
    {
      "bufferView": 2,
      "byteOffset": 1003464,
      "componentType": 5126,
      "count": 559,
      "max": [
        1.0362497568130493,
        1.568678379058838,
        0.5925552845001221
      ],
      "min": [
        -1.0362495183944702,
        -0.7437400817871094,
        -0.592555582523346
      ],
      "type": "VEC3"
    },
    {
      "bufferView": 2,
      "byteOffset": 1010172,
      "componentType": 5126,
      "count": 559,
      "max": [
        1.0,
        0.9766188263893127,
        0.998795211315155
      ],
      "min": [
        -1.0,
        -0.9766188263893127,
        -0.998795211315155
      ],
      "type": "VEC3"
    },
    {
      "bufferView": 1,
      "byteOffset": 334488,
      "componentType": 5126,
      "count": 559,
      "max": [
        1.000000238418579,
        1.0
      ],
      "min": [
        0.0,
        0.0
      ],
      "type": "VEC2"
    },
    {
      "bufferView": 0,
      "byteOffset": 746112,
      "componentType": 5125,
      "count": 2880,
      "type": "SCALAR"
    },
    {
      "bufferView": 2,
      "byteOffset": 1016880,
      "componentType": 5126,
      "count": 559,
      "max": [
        1.000000238418579,
        1.0,
        1.0000003576278687
      ],
      "min": [
        -0.9999998211860657,
        -1.0,
        -1.0
      ],
      "type": "VEC3"
    },
    {
      "bufferView": 2,
      "byteOffset": 1023588,
      "componentType": 5126,
      "count": 559,
      "max": [
        1.0,
        1.0,
        1.0
      ],
      "min": [
        -1.0,
        -1.0,
        -1.0
      ],
      "type": "VEC3"
    },
    {
      "bufferView": 1,
      "byteOffset": 338960,
      "componentType": 5126,
      "count": 559,
      "max": [
        1.000000238418579,
        1.0
      ],
      "min": [
        0.0,
        0.0
      ],
      "type": "VEC2"
    },
    {
      "bufferView": 0,
      "byteOffset": 757632,
      "componentType": 5125,
      "count": 2880,
      "type": "SCALAR"
    },
    {
      "bufferView": 2,
      "byteOffset": 1030296,
      "componentType": 5126,
      "count": 1004,
      "max": [
        1.0677430629730225,
        1.0,
        1.067743182182312
      ],
      "min": [
        -1.0677427053451538,
        -1.0,
        -1.0677428245544434
      ],
      "type": "VEC3"
    },
    {
      "bufferView": 2,
      "byteOffset": 1042344,
      "componentType": 5126,
      "count": 1004,
      "max": [
        1.0,
        1.0,
        1.0
      ],
      "min": [
        -1.0,
        -1.0,
        -1.0
      ],
      "type": "VEC3"
    },
    {
      "bufferView": 1,
      "byteOffset": 343432,
      "componentType": 5126,
      "count": 1004,
      "max": [
        1.000002384185791,
        1.0
      ],
      "min": [
        -2.3581496861879714e-06,
        0.0
      ],
      "type": "VEC2"
    },
    {
      "bufferView": 0,
      "byteOffset": 769152,
      "componentType": 5125,
      "count": 5184,
      "type": "SCALAR"
    }
  ],
  "asset": {
    "extras": {
      "author": "sharmadeepakkumar991 (https://sketchfab.com/dkski3Dduniya)",
      "license": "CC-BY-4.0 (http://creativecommons.org/licenses/by/4.0/)",
      "source": "https://sketchfab.com/3d-models/doraemon-d1f580c1476247208b01af5a5d73f80d",
      "title": "Doraemon"
    },
    "generator": "Sketchfab-12.68.0",
    "version": "2.0"
  },
  "bufferViews": [
    {
      "buffer": 0,
      "byteLength": 789888,
      "name": "floatBufferViews",
      "target": 34963
    },
    {
      "buffer": 0,
      "byteLength": 351464,
      "byteOffset": 789888,
      "byteStride": 8,
      "name": "floatBufferViews",
      "target": 34962
    },
    {
      "buffer": 0,
      "byteLength": 1054392,
      "byteOffset": 1141352,
      "byteStride": 12,
      "name": "floatBufferViews",
      "target": 34962
    }
  ],
  "buffers": [
    {
      "byteLength": 2195744,
      "uri": "scene.bin"
    }
  ],
  "materials": [
    {
      "doubleSided": true,
      "name": "blue",
      "pbrMetallicRoughness": {
        "baseColorFactor": [
          0.0364489,
          0.122458,
          0.269736,
          1.0
        ],
        "metallicFactor": 0.0,
        "roughnessFactor": 0.9743286121
      }
    },
    {
      "doubleSided": true,
      "name": "Material.003",
      "pbrMetallicRoughness": {
        "baseColorFactor": [
          0.355949,
          0.355949,
          0.355949,
          1.0
        ],
        "metallicFactor": 0.0,
        "roughnessFactor": 0.9204073839
      }
    },
    {
      "doubleSided": true,
      "name": "white",
      "pbrMetallicRoughness": {
        "baseColorFactor": [
          0.8,
          0.8,
          0.8,
          1.0
        ],
        "metallicFactor": 0.0,
        "roughnessFactor": 0.8211145618
      }
    },
    {
      "doubleSided": true,
      "name": "Material.002",
      "pbrMetallicRoughness": {
        "baseColorFactor": [
          0.323143,
          0.0241576,
          0.0295568,
          1.0
        ],
        "metallicFactor": 0.0,
        "roughnessFactor": 0.9802976208
      }
    },
    {
      "doubleSided": true,
      "name": "black",
      "pbrMetallicRoughness": {
        "baseColorFactor": [
          0.00592527,
          0.00592527,
          0.00592527,
          1.0
        ],
        "metallicFactor": 0.0,
        "roughnessFactor": 0.9986750693
      }
    },
    {
      "doubleSided": true,
      "name": "material",
      "pbrMetallicRoughness": {
        "baseColorFactor": [
          0.09989870000000001,
          0.0116122,
          0.0103298,
          1.0
        ],
        "metallicFactor": 0.0,
        "roughnessFactor": 0.993227102
      }
    },
    {
      "doubleSided": true,
      "name": "tounge",
      "pbrMetallicRoughness": {
        "baseColorFactor": [
          0.644471,
          0.0817886,
          0.0433442,
          1.0
        ],
        "metallicFactor": 0.0,
        "roughnessFactor": 0.9684486369957853
      }
    },
    {
      "doubleSided": true,
      "name": "yellow",
      "pbrMetallicRoughness": {
        "baseColorFactor": [
          0.57448,
          0.29179,
          0.00818933,
          1.0
        ],
        "metallicFactor": 0.0,
        "roughnessFactor": 0.9050337984804249
      }
    }
  ],
  "meshes": [
    {
      "name": "body_blue_0",
      "primitives": [
        {
          "attributes": {
            "NORMAL": 1,
            "POSITION": 0,
            "TEXCOORD_0": 2
          },
          "indices": 3,
          "material": 0,
          "mode": 4
        }
      ]
    },
    {
      "name": "body_Material.003_0",
      "primitives": [
        {
          "attributes": {
            "NORMAL": 5,
            "POSITION": 4,
            "TEXCOORD_0": 6
          },
          "indices": 7,
          "material": 1,
          "mode": 4
        }
      ]
    },
    {
      "name": "body_white_0",
      "primitives": [
        {
          "attributes": {
            "NORMAL": 9,
            "POSITION": 8,
            "TEXCOORD_0": 10
          },
          "indices": 11,
          "material": 2,
          "mode": 4
        }
      ]
    },
    {
      "name": "body_Material.002_0",
      "primitives": [
        {
          "attributes": {
            "NORMAL": 13,
            "POSITION": 12,
            "TEXCOORD_0": 14
          },
          "indices": 15,
          "material": 3,
          "mode": 4
        }
      ]
    },
    {
      "name": "body_black_0",
      "primitives": [
        {
          "attributes": {
            "NORMAL": 17,
            "POSITION": 16,
            "TEXCOORD_0": 18
          },
          "indices": 19,
          "material": 4,
          "mode": 4
        }
      ]
    },
    {
      "name": "body_red_0",
      "primitives": [
        {
          "attributes": {
            "NORMAL": 21,
            "POSITION": 20,
            "TEXCOORD_0": 22
          },
          "indices": 23,
          "material": 5,
          "mode": 4
        }
      ]
    },
    {
      "name": "tongue_tounge_0",
      "primitives": [
        {
          "attributes": {
            "NORMAL": 25,
            "POSITION": 24,
            "TEXCOORD_0": 26
          },
          "indices": 27,
          "material": 6,
          "mode": 4
        }
      ]
    },
    {
      "name": "nose_red_0",
      "primitives": [
        {
          "attributes": {
            "NORMAL": 29,
            "POSITION": 28,
            "TEXCOORD_0": 30
          },
          "indices": 31,
          "material": 5,
          "mode": 4
        }
      ]
    },
    {
      "name": "bell_yellow_0",
      "primitives": [
        {
          "attributes": {
            "NORMAL": 33,
            "POSITION": 32,
            "TEXCOORD_0": 34
          },
          "indices": 35,
          "material": 7,
          "mode": 4
        }
      ]
    }
  ],
  "nodes": [
    {
      "children": [
        1
      ],
      "matrix": [
        1.0,
        0.0,
        0.0,
        0.0,
        0.0,
        2.220446049250313e-16,
        -1.0,
        0.0,
        0.0,
        1.0,
        2.220446049250313e-16,
        0.0,
        0.0,
        0.0,
        0.0,
        1.0
      ],
      "name": "Sketchfab_model"
    },
    {
      "children": [
        2
      ],
      "matrix": [
        1.0,
        0.0,
        0.0,
        0.0,
        0.0,
        0.0,
        1.0,
        0.0,
        0.0,
        -1.0,
        0.0,
        0.0,
        0.0,
        0.0,
        0.0,
        1.0
      ],
      "name": "a2d5655d31e247f5acfb3390718f13f8.fbx"
    },
    {
      "children": [
        3,
        10,
        12,
        14
      ],
      "name": "RootNode"
    },
    {
      "children": [
        4,
        5,
        6,
        7,
        8,
        9
      ],
      "matrix": [
        1.281131386756897,
        0.0,
        0.0,
        0.0,
        0.0,
        1.281131386756897,
        0.0,
        0.0,
        0.0,
        0.0,
        1.281131386756897,
        0.0,
        0.0,
        3.0091514587402344,
        -0.03828407824039459,
        1.0
      ],
      "name": "body"
    },
    {
      "mesh": 0,
      "name": "body_blue_0"
    },
    {
      "mesh": 1,
      "name": "body_Material.003_0"
    },
    {
      "mesh": 2,
      "name": "body_white_0"
    },
    {
      "mesh": 3,
      "name": "body_Material.002_0"
    },
    {
      "mesh": 4,
      "name": "body_black_0"
    },
    {
      "mesh": 5,
      "name": "body_red_0"
    },
    {
      "children": [
        11
      ],
      "matrix": [
        0.6424468755722046,
        0.0,
        0.0,
        0.0,
        0.0,
        0.23593582494672838,
        0.01766165540539752,
        0.0,
        0.0,
        -0.06677799075425468,
        0.8920636245725385,
        0.0,
        0.0,
        2.3771700859069824,
        0.2507384121417999,
        1.0
      ],
      "name": "tongue"
    },
    {
      "mesh": 6,
      "name": "tongue_tounge_0"
    },
    {
      "children": [
        13
      ],
      "matrix": [
        0.15068502724170685,
        0.0,
        0.0,
        0.0,
        0.0,
        -0.031107481081321234,
        -0.14743914695768276,
        0.0,
        0.0,
        0.14743914695768276,
        -0.031107481081321234,
        0.0,
        0.0,
        3.5061020851135254,
        1.1868860721588135,
        1.0
      ],
      "name": "nose"
    },
    {
      "mesh": 7,
      "name": "nose_red_0"
    },
    {
      "children": [
        15
      ],
      "matrix": [
        0.16748392581939697,
        0.0,
        0.0,
        0.0,
        0.0,
        0.16571740786414058,
        -0.024261309323231516,
        0.0,
        0.0,
        0.024261309323231516,
        0.16571740786414058,
        0.0,
        0.0,
        1.8997758626937866,
        0.8485072255134583,
        1.0
      ],
      "name": "bell"
    },
    {
      "mesh": 8,
      "name": "bell_yellow_0"
    }
  ],
  "scene": 0,
  "scenes": [
    {
      "name": "Sketchfab_Scene",
      "nodes": [
        0
      ]
    }
  ]
}
